<?xml version="1.0"?>
<svg version="1.1" xmlns="http://www.w3.org/2000/svg" width="270" height="130" style=""><path fill="#258232" d="M24.2,70.8l9.2,0l0,3.2l-9.2,0l0,9.4l4,0.8l0,2.4l-11.6,0l0-2.4l3.4-0.8l0-21.6l-3.4-0.8l0-2.2l7.6-0.2l12.2,0l0,6.6l-2.6,0l-1-3.4l-8.6,0l0,9z M42.344,86.6l0-2.4l3.4-0.8l0-21.6l-3.4-0.8l0-2.2l11-0.2l0,2.4l-3.4,0.8l0,21.6l3.4,0.8l0,2.4l-11,0z M66.488,83.4l3.8,0.8l0,2.4l-10.8,0l0-2.4l3.4-0.8l0-21.6l-3.4-0.8l0-2.2l8.4-0.2l13.2,22.36l0-19.16l-3.4-0.8l0-2.2l10.4-0.2l0,2.4l-3.4,0.8l0,24.8l-5,0l-13.2-22.04l0,18.84z M101.832,70.4l9.2,0l0,3.2l-9.2,0l0,9.8l9.2,0l0.8-4l2.6,0l0,7.2l-20.2,0l0-2.4l3.4-0.8l0-21.6l-3.4-0.8l0-2.2l7.6-0.2l12.2,0l0,6.8l-2.6,0l-1-3.6l-8.6,0l0,8.6z"/><path fill="#9e2b25" d="M125.696,84.2l0-2.72l2.4-0.96l0-15.04l-2.4-0.96l0-2.72l8.256-0.16l4.8,10.656l5.024-10.496l7.68-0.16l0,2.88l-2.304,0.96l0,15.04l2.4,0.96l0,2.72l-9.536,0l0-2.72l2.496-0.96l0-12.032l-0.864,2.112l-3.616,7.52l-3.456,0.16l-3.68-7.584l-0.544-1.664l0,11.488l2.464,0.96l0,2.72l-9.12,0z M164.65632,66.6c5.184,0,8.064,3.136,8.064,8.64c0,5.76-3.36,9.28-8.544,9.28c-5.216,0-8.16-2.72-8.16-8.8c0-5.76,3.424-9.12,8.64-9.12z M164.49632,70.44c-2.336,0-3.52,1.28-3.52,5.12c0,3.52,1.024,5.12,3.36,5.12c2.304,0,3.424-1.44,3.424-5.28c0-3.264-0.96-4.96-3.264-4.96z M188.54464,80.104l1.152,2.432c-1.568,1.152-3.36,1.984-5.44,1.984c-3.68,0-4.736-2.56-4.736-6.24l0-7.36l-2.976,0l0-3.104l2.976-0.416l0-4.416l4.8-0.864l0,5.28l4.48,0l0,3.52l-4.48,0l0,7.04c0,2.048,0.352,2.88,1.696,2.88c0.864,0,2.112-0.512,2.528-0.736z M202.00096,66.6c5.184,0,8.064,3.136,8.064,8.64c0,5.76-3.36,9.28-8.544,9.28c-5.216,0-8.16-2.72-8.16-8.8c0-5.76,3.424-9.12,8.64-9.12z M201.84096,70.44c-2.336,0-3.52,1.28-3.52,5.12c0,3.52,1.024,5.12,3.36,5.12c2.304,0,3.424-1.44,3.424-5.28c0-3.264-0.96-4.96-3.264-4.96z M221.24928,66.92l0.288,2.208s2.304-2.528,4.448-2.528c1.76,0,2.976,0.576,2.976,0.576l-0.256,6.144l-2.88,0l-0.48-2.72c-1.856,0-3.456,1.792-3.456,1.792l0,8.448l3.2,0.8l0,2.56l-10.56,0l0-2.56l2.56-0.8l0-10.4l-2.56-0.8l0-2.56z M235.4416,78.6l0.256,2.08s1.12,0.32,2.688,0.32c1.76,0,2.624-0.544,2.624-1.568c0-2.624-8.544-1.664-8.544-7.36c0-4,3.2-5.472,6.592-5.472c2.88,0,5.952,0.96,5.952,0.96l-0.128,4.8l-2.72,0l-0.48-1.92s-0.928-0.32-2.208-0.32c-1.376,0-2.208,0.576-2.208,1.632c0,2.592,8.544,1.472,8.544,7.008c0,3.68-2.976,5.76-7.36,5.76c-3.04,0-5.888-0.704-5.888-0.704l0-5.216l2.88,0z"/></svg>
